<svg viewBox="0 0 340 220" xmlns="http://www.w3.org/2000/svg" role="img" aria-label="A Jazz Canon mark">
  <!-- A Jazz Canon — primary mark (LOCKED 2026-06-30). Shelf of blue LP spines, one amber
       LP leaning in the gap (touches both sides, rests on the baseline), resolving through
       an oval into a 6-groove record with an amber spindle. Palette: design-spec §2.
       Font-free → production-ready. -->
  <defs>
    <clipPath id="mk-rec"><circle cx="250" cy="110" r="74"/></clipPath>
  </defs>
  <g>
    <rect x="18"  y="24" width="8" height="172" rx="2" fill="#2b5f7a"/>
    <rect x="30"  y="24" width="8" height="172" rx="2" fill="#4a7c95"/>
    <rect x="42"  y="24" width="8" height="172" rx="2" fill="#21506a"/>
    <rect x="54"  y="24" width="8" height="172" rx="2" fill="#2b5f7a"/>
    <rect x="94"  y="24" width="8" height="172" rx="2" fill="#4a7c95"/>
    <rect x="106" y="24" width="8" height="172" rx="2" fill="#21506a"/>
    <rect x="118" y="24" width="8" height="172" rx="2" fill="#2b5f7a"/>
    <rect x="130" y="24" width="8" height="172" rx="2" fill="#4a7c95"/>
    <rect x="142" y="24" width="8" height="172" rx="2" fill="#21506a"/>
  </g>
  <ellipse cx="163" cy="110" rx="13" ry="82" fill="#4a7c95"/>
  <circle cx="250" cy="110" r="74" fill="#2b5f7a"/>
  <g clip-path="url(#mk-rec)" fill="none" stroke="#faf8f3" stroke-opacity="0.5" stroke-width="2">
    <circle cx="250" cy="110" r="16"/>
    <circle cx="250" cy="110" r="26"/>
    <circle cx="250" cy="110" r="37"/>
    <circle cx="250" cy="110" r="47"/>
    <circle cx="250" cy="110" r="57"/>
    <circle cx="250" cy="110" r="68"/>
  </g>
  <circle cx="250" cy="110" r="8" fill="#c4862a"/>
  <rect x="62" y="22.9" width="8" height="172" rx="1" fill="#c4862a" transform="rotate(8 62 194.9)"/>
</svg>
