<svg viewBox="0 0 1000 220" xmlns="http://www.w3.org/2000/svg" role="img" aria-label="A Jazz Canon logo">
  <!-- HORIZONTAL LOCKUP: mark + wordmark. Type is LIVE TEXT (Oswald) — for the
       website this renders fine (font is loaded); for any single-image/social use, OUTLINE
       the wordmark to paths first (img-isolated SVGs don't fetch web fonts). -->
  <style>
    @import url('https://fonts.googleapis.com/css2?family=Oswald:wght@600&display=swap');
    .wm { font-family: 'Oswald', 'Helvetica Neue Condensed', sans-serif; }
  </style>
  <defs>
    <clipPath id="lh-rec"><circle cx="250" cy="110" r="74"/></clipPath>
  </defs>

  <!-- mark -->
  <g>
    <rect x="18"  y="24" width="8" height="172" rx="2" fill="#2b5f7a"/>
    <rect x="30"  y="24" width="8" height="172" rx="2" fill="#4a7c95"/>
    <rect x="42"  y="24" width="8" height="172" rx="2" fill="#21506a"/>
    <rect x="54"  y="24" width="8" height="172" rx="2" fill="#2b5f7a"/>
    <rect x="94"  y="24" width="8" height="172" rx="2" fill="#4a7c95"/>
    <rect x="106" y="24" width="8" height="172" rx="2" fill="#21506a"/>
    <rect x="118" y="24" width="8" height="172" rx="2" fill="#2b5f7a"/>
    <rect x="130" y="24" width="8" height="172" rx="2" fill="#4a7c95"/>
    <rect x="142" y="24" width="8" height="172" rx="2" fill="#21506a"/>
  </g>
  <ellipse cx="163" cy="110" rx="13" ry="82" fill="#4a7c95"/>
  <circle cx="250" cy="110" r="74" fill="#2b5f7a"/>
  <g clip-path="url(#lh-rec)" fill="none" stroke="#faf8f3" stroke-opacity="0.5" stroke-width="2">
    <circle cx="250" cy="110" r="16"/><circle cx="250" cy="110" r="26"/><circle cx="250" cy="110" r="37"/>
    <circle cx="250" cy="110" r="47"/><circle cx="250" cy="110" r="57"/><circle cx="250" cy="110" r="68"/>
  </g>
  <circle cx="250" cy="110" r="8" fill="#c4862a"/>
  <rect x="62" y="22.9" width="8" height="172" rx="1" fill="#c4862a" transform="rotate(8 62 194.9)"/>

  <!-- wordmark: large-cap/small-cap, sized down relative to the mark -->
  <text class="wm" x="372" y="104" font-size="72" font-weight="600" font-variant="small-caps" letter-spacing="3" fill="#2b5f7a">A Jazz Canon</text>
  <text class="wm" x="374" y="142" font-size="24" font-weight="600" letter-spacing="6" fill="#6b6358">Jazz on Record</text>
</svg>
